<mxfile host="app.diagrams.net" modified="2024-06-02T08:12:34.231Z" agent="Mozilla/5.0 (Macintosh; Intel Mac OS X 10_15_7) AppleWebKit/537.36 (KHTML, like Gecko) Chrome/124.0.0.0 Safari/537.36 Edg/124.0.0.0" etag="Wb6njG4xHWqqDKR38v2Q" version="24.4.0" type="github">
  <diagram name="Page-1" id="13e1069c-82ec-6db2-03f1-153e76fe0fe0">
    <mxGraphModel dx="946" dy="564" grid="1" gridSize="10" guides="1" tooltips="1" connect="1" arrows="1" fold="1" page="1" pageScale="1" pageWidth="1100" pageHeight="850" background="none" math="0" shadow="0">
      <root>
        <mxCell id="0" />
        <mxCell id="1" parent="0" />
        <mxCell id="z0hvQyYRtgJJoz0VUNvv-14" style="edgeStyle=orthogonalEdgeStyle;rounded=0;orthogonalLoop=1;jettySize=auto;html=1;curved=0;" edge="1" parent="1" source="z0hvQyYRtgJJoz0VUNvv-5" target="z0hvQyYRtgJJoz0VUNvv-6">
          <mxGeometry relative="1" as="geometry">
            <Array as="points">
              <mxPoint x="240" y="550" />
              <mxPoint x="240" y="550" />
            </Array>
          </mxGeometry>
        </mxCell>
        <mxCell id="z0hvQyYRtgJJoz0VUNvv-15" value="请求支付方式" style="edgeLabel;html=1;align=center;verticalAlign=middle;resizable=0;points=[];" vertex="1" connectable="0" parent="z0hvQyYRtgJJoz0VUNvv-14">
          <mxGeometry x="0.015" y="-8" relative="1" as="geometry">
            <mxPoint y="-6" as="offset" />
          </mxGeometry>
        </mxCell>
        <mxCell id="z0hvQyYRtgJJoz0VUNvv-22" style="edgeStyle=orthogonalEdgeStyle;rounded=0;orthogonalLoop=1;jettySize=auto;html=1;curved=0;" edge="1" parent="1" source="z0hvQyYRtgJJoz0VUNvv-5" target="z0hvQyYRtgJJoz0VUNvv-7">
          <mxGeometry relative="1" as="geometry" />
        </mxCell>
        <mxCell id="z0hvQyYRtgJJoz0VUNvv-5" value="售卖机" style="shape=umlLifeline;perimeter=lifelinePerimeter;whiteSpace=wrap;html=1;container=1;dropTarget=0;collapsible=0;recursiveResize=0;outlineConnect=0;portConstraint=eastwest;newEdgeStyle={&quot;curved&quot;:0,&quot;rounded&quot;:0};" vertex="1" parent="1">
          <mxGeometry x="290" y="380" width="100" height="450" as="geometry" />
        </mxCell>
        <mxCell id="z0hvQyYRtgJJoz0VUNvv-8" style="edgeStyle=orthogonalEdgeStyle;rounded=0;orthogonalLoop=1;jettySize=auto;html=1;curved=0;" edge="1" parent="1" source="z0hvQyYRtgJJoz0VUNvv-6" target="z0hvQyYRtgJJoz0VUNvv-5">
          <mxGeometry relative="1" as="geometry">
            <Array as="points">
              <mxPoint x="240" y="470" />
              <mxPoint x="240" y="470" />
            </Array>
          </mxGeometry>
        </mxCell>
        <mxCell id="z0hvQyYRtgJJoz0VUNvv-10" style="edgeStyle=orthogonalEdgeStyle;rounded=0;orthogonalLoop=1;jettySize=auto;html=1;curved=0;" edge="1" parent="1" source="z0hvQyYRtgJJoz0VUNvv-6" target="z0hvQyYRtgJJoz0VUNvv-5">
          <mxGeometry relative="1" as="geometry">
            <Array as="points">
              <mxPoint x="240" y="510" />
              <mxPoint x="240" y="510" />
            </Array>
          </mxGeometry>
        </mxCell>
        <mxCell id="z0hvQyYRtgJJoz0VUNvv-6" value="" style="shape=umlLifeline;perimeter=lifelinePerimeter;whiteSpace=wrap;html=1;container=1;dropTarget=0;collapsible=0;recursiveResize=0;outlineConnect=0;portConstraint=eastwest;newEdgeStyle={&quot;curved&quot;:0,&quot;rounded&quot;:0};participant=umlActor;" vertex="1" parent="1">
          <mxGeometry x="130" y="380" width="20" height="450" as="geometry" />
        </mxCell>
        <mxCell id="z0hvQyYRtgJJoz0VUNvv-7" value="微信支付" style="shape=umlLifeline;perimeter=lifelinePerimeter;whiteSpace=wrap;html=1;container=1;dropTarget=0;collapsible=0;recursiveResize=0;outlineConnect=0;portConstraint=eastwest;newEdgeStyle={&quot;curved&quot;:0,&quot;rounded&quot;:0};" vertex="1" parent="1">
          <mxGeometry x="510" y="380" width="100" height="450" as="geometry" />
        </mxCell>
        <mxCell id="z0hvQyYRtgJJoz0VUNvv-9" value="选择拿铁咖啡" style="text;html=1;align=center;verticalAlign=middle;resizable=0;points=[];autosize=1;strokeColor=none;fillColor=none;" vertex="1" parent="1">
          <mxGeometry x="190" y="438" width="100" height="30" as="geometry" />
        </mxCell>
        <mxCell id="z0hvQyYRtgJJoz0VUNvv-11" value="选择半奶无糖" style="text;html=1;align=center;verticalAlign=middle;resizable=0;points=[];autosize=1;strokeColor=none;fillColor=none;" vertex="1" parent="1">
          <mxGeometry x="190" y="480" width="100" height="30" as="geometry" />
        </mxCell>
        <mxCell id="z0hvQyYRtgJJoz0VUNvv-17" value="" style="edgeStyle=none;orthogonalLoop=1;jettySize=auto;html=1;rounded=0;dashed=1;" edge="1" parent="1">
          <mxGeometry width="100" relative="1" as="geometry">
            <mxPoint x="140.25" y="590" as="sourcePoint" />
            <mxPoint x="339.75" y="590" as="targetPoint" />
            <Array as="points" />
          </mxGeometry>
        </mxCell>
        <mxCell id="z0hvQyYRtgJJoz0VUNvv-20" value="选择微信支付" style="text;html=1;align=center;verticalAlign=middle;resizable=0;points=[];autosize=1;strokeColor=none;fillColor=none;" vertex="1" parent="1">
          <mxGeometry x="190" y="566" width="100" height="30" as="geometry" />
        </mxCell>
        <mxCell id="z0hvQyYRtgJJoz0VUNvv-23" value="请求二维码" style="text;html=1;align=center;verticalAlign=middle;resizable=0;points=[];autosize=1;strokeColor=none;fillColor=none;" vertex="1" parent="1">
          <mxGeometry x="410" y="578" width="80" height="30" as="geometry" />
        </mxCell>
        <mxCell id="z0hvQyYRtgJJoz0VUNvv-24" value="" style="edgeStyle=none;orthogonalLoop=1;jettySize=auto;html=1;rounded=0;" edge="1" parent="1" target="z0hvQyYRtgJJoz0VUNvv-5">
          <mxGeometry width="100" relative="1" as="geometry">
            <mxPoint x="340" y="650" as="sourcePoint" />
            <mxPoint x="440" y="650" as="targetPoint" />
            <Array as="points" />
          </mxGeometry>
        </mxCell>
        <mxCell id="z0hvQyYRtgJJoz0VUNvv-27" style="edgeStyle=orthogonalEdgeStyle;rounded=0;orthogonalLoop=1;jettySize=auto;html=1;curved=0;dashed=1;" edge="1" parent="1" source="z0hvQyYRtgJJoz0VUNvv-7">
          <mxGeometry relative="1" as="geometry">
            <mxPoint x="540" y="650" as="sourcePoint" />
            <mxPoint x="340" y="650" as="targetPoint" />
            <Array as="points">
              <mxPoint x="540" y="650" />
              <mxPoint x="540" y="650" />
            </Array>
          </mxGeometry>
        </mxCell>
        <mxCell id="z0hvQyYRtgJJoz0VUNvv-29" value="返回二维码" style="text;html=1;align=center;verticalAlign=middle;resizable=0;points=[];autosize=1;strokeColor=none;fillColor=none;" vertex="1" parent="1">
          <mxGeometry x="410" y="620" width="80" height="30" as="geometry" />
        </mxCell>
        <mxCell id="z0hvQyYRtgJJoz0VUNvv-30" value="" style="edgeStyle=none;orthogonalLoop=1;jettySize=auto;html=1;rounded=0;" edge="1" parent="1">
          <mxGeometry width="100" relative="1" as="geometry">
            <mxPoint x="140" y="680" as="sourcePoint" />
            <mxPoint x="340" y="680" as="targetPoint" />
            <Array as="points" />
          </mxGeometry>
        </mxCell>
        <mxCell id="z0hvQyYRtgJJoz0VUNvv-31" value="扫码并确认支付" style="text;html=1;align=center;verticalAlign=middle;resizable=0;points=[];autosize=1;strokeColor=none;fillColor=none;" vertex="1" parent="1">
          <mxGeometry x="185" y="650" width="110" height="30" as="geometry" />
        </mxCell>
        <mxCell id="z0hvQyYRtgJJoz0VUNvv-32" value="" style="edgeStyle=none;orthogonalLoop=1;jettySize=auto;html=1;rounded=0;" edge="1" parent="1" target="z0hvQyYRtgJJoz0VUNvv-7">
          <mxGeometry width="100" relative="1" as="geometry">
            <mxPoint x="340" y="710" as="sourcePoint" />
            <mxPoint x="440" y="710" as="targetPoint" />
            <Array as="points" />
          </mxGeometry>
        </mxCell>
        <mxCell id="z0hvQyYRtgJJoz0VUNvv-33" value="支付状态请求" style="text;html=1;align=center;verticalAlign=middle;resizable=0;points=[];autosize=1;strokeColor=none;fillColor=none;" vertex="1" parent="1">
          <mxGeometry x="400" y="688" width="100" height="30" as="geometry" />
        </mxCell>
        <mxCell id="z0hvQyYRtgJJoz0VUNvv-34" value="" style="edgeStyle=none;orthogonalLoop=1;jettySize=auto;html=1;rounded=0;dashed=1;" edge="1" parent="1">
          <mxGeometry width="100" relative="1" as="geometry">
            <mxPoint x="559.5" y="752" as="sourcePoint" />
            <mxPoint x="340" y="752" as="targetPoint" />
            <Array as="points" />
          </mxGeometry>
        </mxCell>
        <mxCell id="z0hvQyYRtgJJoz0VUNvv-35" value="支付成功" style="text;html=1;align=center;verticalAlign=middle;resizable=0;points=[];autosize=1;strokeColor=none;fillColor=none;" vertex="1" parent="1">
          <mxGeometry x="415" y="718" width="70" height="30" as="geometry" />
        </mxCell>
        <mxCell id="z0hvQyYRtgJJoz0VUNvv-36" value="" style="edgeStyle=none;orthogonalLoop=1;jettySize=auto;html=1;rounded=0;" edge="1" parent="1" source="z0hvQyYRtgJJoz0VUNvv-5">
          <mxGeometry width="100" relative="1" as="geometry">
            <mxPoint x="240" y="790" as="sourcePoint" />
            <mxPoint x="140" y="790" as="targetPoint" />
            <Array as="points" />
          </mxGeometry>
        </mxCell>
        <mxCell id="z0hvQyYRtgJJoz0VUNvv-37" value="拿铁咖啡" style="text;html=1;align=center;verticalAlign=middle;resizable=0;points=[];autosize=1;strokeColor=none;fillColor=none;" vertex="1" parent="1">
          <mxGeometry x="205" y="760" width="70" height="30" as="geometry" />
        </mxCell>
      </root>
    </mxGraphModel>
  </diagram>
</mxfile>
